<mxfile host="app.diagrams.net" agent="Mozilla/5.0 (Windows NT 10.0; Win64; x64) AppleWebKit/537.36 (KHTML, like Gecko) Chrome/129.0.0.0 Safari/537.36" version="24.7.17">
  <diagram name="Page-1" id="rmFP2wXDVYkHg5Yxyf7J">
    <mxGraphModel dx="918" dy="362" grid="1" gridSize="10" guides="1" tooltips="1" connect="1" arrows="1" fold="1" page="1" pageScale="1" pageWidth="850" pageHeight="1100" background="#ffffff" math="0" shadow="0">
      <root>
        <mxCell id="0" />
        <mxCell id="1" parent="0" />
        <mxCell id="lskfsVLSXJnKaLs_SEhu-23" value="Mr. ED Nurse Hotline&lt;div&gt;&lt;br&gt;&lt;/div&gt;" style="rounded=0;whiteSpace=wrap;html=1;fillColor=none;align=left;verticalAlign=top;" parent="1" vertex="1">
          <mxGeometry x="190" y="60" width="390" height="260" as="geometry" />
        </mxCell>
        <mxCell id="lskfsVLSXJnKaLs_SEhu-1" value="Hotline&lt;div&gt;&lt;span style=&quot;background-color: initial;&quot;&gt;Nurse&lt;/span&gt;&lt;/div&gt;" style="shape=umlActor;verticalLabelPosition=bottom;verticalAlign=top;html=1;outlineConnect=0;align=center;" parent="1" vertex="1">
          <mxGeometry x="100" y="160" width="30" height="60" as="geometry" />
        </mxCell>
        <mxCell id="lskfsVLSXJnKaLs_SEhu-3" value="View &amp;amp; Respond&amp;nbsp;&lt;div&gt;to Patient Call&lt;/div&gt;" style="ellipse;whiteSpace=wrap;html=1;aspect=fixed;" parent="1" vertex="1">
          <mxGeometry x="211" y="160" width="105" height="60" as="geometry" />
        </mxCell>
        <mxCell id="lskfsVLSXJnKaLs_SEhu-4" value="View Summary of Patient Call" style="ellipse;whiteSpace=wrap;html=1;aspect=fixed;" parent="1" vertex="1">
          <mxGeometry x="330" y="90" width="105" height="60" as="geometry" />
        </mxCell>
        <mxCell id="lskfsVLSXJnKaLs_SEhu-5" value="Auto-Log&amp;nbsp;&lt;br&gt;Patient Call" style="ellipse;whiteSpace=wrap;html=1;aspect=fixed;" parent="1" vertex="1">
          <mxGeometry x="210" y="250" width="105" height="60" as="geometry" />
        </mxCell>
        <mxCell id="lskfsVLSXJnKaLs_SEhu-6" value="Send Patient&#39;s&amp;nbsp;&lt;div&gt;Call Transcript&lt;/div&gt;" style="ellipse;whiteSpace=wrap;html=1;" parent="1" vertex="1">
          <mxGeometry x="440" y="250" width="105" height="60" as="geometry" />
        </mxCell>
        <mxCell id="lskfsVLSXJnKaLs_SEhu-7" value="&lt;div&gt;Direct Patient&amp;nbsp;&lt;/div&gt;&lt;div&gt;after Call&lt;/div&gt;" style="ellipse;whiteSpace=wrap;html=1;aspect=fixed;" parent="1" vertex="1">
          <mxGeometry x="440" y="160" width="105" height="60" as="geometry" />
        </mxCell>
        <mxCell id="lskfsVLSXJnKaLs_SEhu-9" value="" style="endArrow=none;html=1;rounded=0;entryX=0;entryY=0.5;entryDx=0;entryDy=0;exitX=0.5;exitY=0.5;exitDx=0;exitDy=0;exitPerimeter=0;textOpacity=0;endFill=0;" parent="1" source="lskfsVLSXJnKaLs_SEhu-1" target="lskfsVLSXJnKaLs_SEhu-3" edge="1">
          <mxGeometry width="50" height="50" relative="1" as="geometry">
            <mxPoint x="120" y="240" as="sourcePoint" />
            <mxPoint x="170" y="190" as="targetPoint" />
          </mxGeometry>
        </mxCell>
        <mxCell id="lskfsVLSXJnKaLs_SEhu-11" value="" style="endArrow=none;html=1;rounded=0;entryX=0;entryY=0.5;entryDx=0;entryDy=0;exitX=0.5;exitY=0.5;exitDx=0;exitDy=0;exitPerimeter=0;endFill=0;" parent="1" source="lskfsVLSXJnKaLs_SEhu-1" target="lskfsVLSXJnKaLs_SEhu-4" edge="1">
          <mxGeometry width="50" height="50" relative="1" as="geometry">
            <mxPoint x="120" y="250" as="sourcePoint" />
            <mxPoint x="150" y="210" as="targetPoint" />
          </mxGeometry>
        </mxCell>
        <mxCell id="lskfsVLSXJnKaLs_SEhu-18" value="&amp;lt;&amp;lt;includes&amp;gt;&amp;gt;" style="endArrow=classic;dashed=1;html=1;rounded=0;entryX=0;entryY=0.5;entryDx=0;entryDy=0;exitX=1;exitY=0.5;exitDx=0;exitDy=0;endFill=1;" parent="1" source="lskfsVLSXJnKaLs_SEhu-5" target="lskfsVLSXJnKaLs_SEhu-6" edge="1">
          <mxGeometry width="50" height="50" relative="1" as="geometry">
            <mxPoint x="280" y="270" as="sourcePoint" />
            <mxPoint x="330" y="220" as="targetPoint" />
          </mxGeometry>
        </mxCell>
        <mxCell id="lskfsVLSXJnKaLs_SEhu-19" value="&amp;lt;&amp;lt;includes&amp;gt;&amp;gt;" style="endArrow=classic;dashed=1;html=1;rounded=0;entryX=0;entryY=0.5;entryDx=0;entryDy=0;endFill=1;" parent="1" target="lskfsVLSXJnKaLs_SEhu-7" edge="1">
          <mxGeometry width="50" height="50" relative="1" as="geometry">
            <mxPoint x="320" y="190" as="sourcePoint" />
            <mxPoint x="418" y="119.58000000000001" as="targetPoint" />
          </mxGeometry>
        </mxCell>
        <mxCell id="lskfsVLSXJnKaLs_SEhu-25" value="&amp;lt;&amp;lt;includes&amp;gt;&amp;gt;" style="endArrow=classic;dashed=1;html=1;rounded=0;entryX=0.5;entryY=0;entryDx=0;entryDy=0;exitX=0.5;exitY=1;exitDx=0;exitDy=0;endFill=1;" parent="1" source="lskfsVLSXJnKaLs_SEhu-3" target="lskfsVLSXJnKaLs_SEhu-5" edge="1">
          <mxGeometry width="50" height="50" relative="1" as="geometry">
            <mxPoint x="325" y="130" as="sourcePoint" />
            <mxPoint x="430" y="130" as="targetPoint" />
          </mxGeometry>
        </mxCell>
        <mxCell id="lskfsVLSXJnKaLs_SEhu-27" value="Patient" style="shape=umlActor;verticalLabelPosition=bottom;verticalAlign=top;html=1;outlineConnect=0;align=center;" parent="1" vertex="1">
          <mxGeometry x="690" y="140" width="30" height="60" as="geometry" />
        </mxCell>
        <mxCell id="lskfsVLSXJnKaLs_SEhu-33" value="" style="endArrow=none;html=1;rounded=0;exitX=1;exitY=0.5;exitDx=0;exitDy=0;endFill=0;" parent="1" source="lskfsVLSXJnKaLs_SEhu-7" edge="1">
          <mxGeometry width="50" height="50" relative="1" as="geometry">
            <mxPoint x="300" y="220" as="sourcePoint" />
            <mxPoint x="680" y="190" as="targetPoint" />
          </mxGeometry>
        </mxCell>
        <mxCell id="lskfsVLSXJnKaLs_SEhu-34" value="Hospital" style="shape=umlActor;verticalLabelPosition=bottom;verticalAlign=top;html=1;outlineConnect=0;" parent="1" vertex="1">
          <mxGeometry x="690" y="240" width="30" height="60" as="geometry" />
        </mxCell>
        <mxCell id="lskfsVLSXJnKaLs_SEhu-35" value="" style="endArrow=none;html=1;rounded=0;exitX=1;exitY=0.5;exitDx=0;exitDy=0;endFill=0;" parent="1" source="lskfsVLSXJnKaLs_SEhu-6" edge="1">
          <mxGeometry width="50" height="50" relative="1" as="geometry">
            <mxPoint x="430" y="170" as="sourcePoint" />
            <mxPoint x="680" y="280" as="targetPoint" />
          </mxGeometry>
        </mxCell>
        <mxCell id="lskfsVLSXJnKaLs_SEhu-43" value="" style="endArrow=none;html=1;rounded=0;exitX=1;exitY=0.5;exitDx=0;exitDy=0;endFill=0;" parent="1" source="lskfsVLSXJnKaLs_SEhu-4" edge="1">
          <mxGeometry width="50" height="50" relative="1" as="geometry">
            <mxPoint x="500" y="145" as="sourcePoint" />
            <mxPoint x="680" y="170" as="targetPoint" />
          </mxGeometry>
        </mxCell>
      </root>
    </mxGraphModel>
  </diagram>
</mxfile>
